<?xml version="1.0" standalone="no"?>
<!DOCTYPE svg PUBLIC "-//W3C//DTD SVG 20010904//EN"
 "http://www.w3.org/TR/2001/REC-SVG-20010904/DTD/svg10.dtd">
<svg version="1.0" xmlns="http://www.w3.org/2000/svg"
 width="60.000000pt" height="60.000000pt" viewBox="0 0 60.000000 60.000000"
 preserveAspectRatio="xMidYMid meet">

<g transform="translate(0.000000,60.000000) scale(0.100000,-0.100000)"
fill="#000000" stroke="none">
<path d="M0 315 l0 -285 185 0 c158 0 185 2 185 15 0 13 -26 15 -170 15 l-170
0 0 125 0 125 85 0 85 0 0 -55 c0 -43 3 -55 15 -55 13 0 15 19 13 128 -3 132
-19 173 -28 72 l-5 -55 -80 0 -80 0 -3 113 -3 112 155 0 155 0 3 -82 3 -83 68
0 c81 0 94 18 17 25 l-55 5 0 65 0 65 98 3 97 3 0 -170 0 -170 -110 -3 c-145
-4 -149 -21 -5 -28 l110 -5 3 -67 3 -67 -42 -3 c-70 -5 -61 -28 10 -28 l61 0
0 285 0 285 -300 0 -300 0 0 -285z"/>
</g>
</svg>
