<svg height="512pt" viewBox="0 -10 512.00074 512" width="512pt" xmlns="http://www.w3.org/2000/svg"><path d="m506.097656 254.207031c-3.902344 3.875-9 5.808594-14.097656 5.808594-5.140625 0-10.277344-1.96875-14.1875-5.902344l-15.8125-15.917969v72.820313c0 11.046875-8.953125 20-20 20s-20-8.953125-20-20v-113.082031l-152.105469-153.109375c-7.464843-6.398438-18.457031-6.421875-25.949219-.054688l-153.972656 153.671875c.003906.191406.027344.382813.027344.574219v212c0 22.058594 17.945312 40 40 40h252c22.058594 0 40-17.941406 40-40 0-11.046875 8.953125-20 20-20s20 8.953125 20 20c0 44.113281-35.886719 80-80 80h-252c-44.109375 0-80-35.886719-80-80v-172.683594l-15.871094 15.839844c-7.820312 7.800781-20.480468 7.792969-28.285156-.027344-7.804688-7.816406-7.789062-20.480469.027344-28.28125 0 0 210.835937-210.40625 211.117187-210.65625 22.84375-20.339843 57.230469-20.265625 79.984375.164063.28125.253906 209.214844 210.550781 209.214844 210.550781 7.785156 7.835937 7.746094 20.5-.089844 28.285156zm-251.097656-99.191406c71.683594 0 130 58.320313 130 130 0 71.683594-58.316406 130-130 130-71.679688 0-130-58.316406-130-130 0-71.679687 58.320312-130 130-130zm0 40c-49.625 0-90 40.375-90 90 0 49.628906 40.375 90 90 90s90-40.371094 90-90c0-49.625-40.375-90-90-90zm-14 62c0-11.042969-8.953125-20-20-20s-20 8.957031-20 20c0 11.046875 8.953125 20 20 20s20-8.953125 20-20zm48 20c11.046875 0 20-8.953125 20-20 0-11.042969-8.953125-20-20-20s-20 8.957031-20 20c0 11.046875 8.953125 20 20 20zm-3.113281 26h-61.769531c-12.773438 0-18.953126 15.613281-9.628907 24.332031 8.945313 8.363282 22.046875 15.667969 40.511719 15.667969 18.46875 0 31.566406-7.304687 40.515625-15.667969 9.324219-8.71875 3.144531-24.332031-9.628906-24.332031zm0 0"/></svg>